<svg xmlns="http://www.w3.org/2000/svg" viewBox="0 0 640 360" role="img" aria-labelledby="title desc">
  <title id="title">Maritime first aid training illustration</title>
  <desc id="desc">A simple boat and first aid kit illustration for maritime CPR and first aid training.</desc>
  <defs>
    <linearGradient id="sky" x1="0" x2="0" y1="0" y2="1">
      <stop offset="0" stop-color="#dff3ff"/>
      <stop offset="1" stop-color="#f8fbff"/>
    </linearGradient>
    <linearGradient id="water" x1="0" x2="1" y1="0" y2="1">
      <stop offset="0" stop-color="#0f5e9c"/>
      <stop offset="1" stop-color="#38bdf8"/>
    </linearGradient>
  </defs>
  <rect width="640" height="360" fill="url(#sky)"/>
  <circle cx="520" cy="78" r="42" fill="#facc15" opacity="0.85"/>
  <path d="M0 250c58-28 110-28 168 0s110 28 168 0 110-28 168 0 88 30 136 6v104H0z" fill="url(#water)" opacity="0.95"/>
  <path d="M72 228h398l-54 74H140z" fill="#0f172a"/>
  <path d="M138 168h196l58 60H104z" fill="#ffffff" stroke="#0f172a" stroke-width="8" stroke-linejoin="round"/>
  <path d="M188 126h96v42h-96z" fill="#0f5e9c"/>
  <path d="M388 112h80v92h-80z" fill="#ffffff" stroke="#0f172a" stroke-width="7" rx="10"/>
  <path d="M424 132v52M398 158h52" stroke="#dc2626" stroke-width="16" stroke-linecap="round"/>
  <path d="M166 198h42M238 198h42M310 198h42" stroke="#0f5e9c" stroke-width="12" stroke-linecap="round"/>
  <path d="M28 300c48-18 86-18 134 0s86 18 134 0 86-18 134 0 86 18 134 0" fill="none" stroke="#e0f2fe" stroke-width="12" stroke-linecap="round" opacity="0.9"/>
</svg>
